<svg width="20" height="20" viewBox="0 0 20 20" fill="none" xmlns="http://www.w3.org/2000/svg">
<path fill-rule="evenodd" clip-rule="evenodd" d="M0.283445 0.283445C0.661372 -0.0944817 1.27411 -0.0944817 1.65204 0.283445L10 8.63141L18.348 0.283445C18.7259 -0.0944817 19.3386 -0.0944817 19.7166 0.283445C20.0945 0.661372 20.0945 1.27411 19.7166 1.65204L11.3686 10L19.7166 18.348C20.0945 18.7259 20.0945 19.3386 19.7166 19.7166C19.3386 20.0945 18.7259 20.0945 18.348 19.7166L10 11.3686L1.65204 19.7166C1.27411 20.0945 0.661372 20.0945 0.283445 19.7166C-0.0944817 19.3386 -0.0944817 18.7259 0.283445 18.348L8.63141 10L0.283445 1.65204C-0.0944817 1.27411 -0.0944817 0.661372 0.283445 0.283445Z" fill="#282F32"/>
</svg>
