<svg width="202" height="43" viewBox="0 0 202 43" fill="none" xmlns="http://www.w3.org/2000/svg">
<path d="M13.5248 21.5756C15.489 17.984 16.9481 14.6729 16.4991 20.7338C16.443 21.6318 16.3869 22.5858 16.3869 23.4838C16.3849 23.6564 16.3301 23.8243 16.2297 23.9648C16.1294 24.1053 15.9884 24.2116 15.8257 24.2695C11.6171 27.0192 10.2137 25.8968 13.5248 21.5756ZM24.1871 20.1165C24.1778 19.7228 24.1965 19.329 24.2432 18.938C24.3436 17.9874 24.5314 17.0481 24.8044 16.132C25.2222 14.9792 25.4496 13.7662 25.4778 12.5404C25.4778 12.3159 25.534 12.0914 25.534 11.9231C25.8146 10.2956 26.039 8.72428 26.264 7.09678C26.535 5.87888 26.5541 4.61843 26.3201 3.39288C26.2579 3.07713 26.1441 2.77377 25.9834 2.49498C25.5828 2.00093 25.1517 1.53236 24.6927 1.09198C24.476 0.885378 24.2023 0.748544 23.907 0.699178L21.3816 0.0818777C20.7643 -0.0865223 20.5959 -0.030422 20.2592 0.586978C19.3136 2.45068 18.5614 4.40636 18.0144 6.42338C17.79 7.60188 17.5655 8.78038 17.4533 10.015C17.3898 11.0272 17.0395 12.0005 16.4433 12.821L12.1221 19.6115C10.9863 21.5534 9.71095 23.4102 8.306 25.1673C8.19993 25.3087 8.10606 25.4589 8.0254 25.6162L6.2293 27.6927C6.15982 27.7497 6.07789 27.7896 5.99014 27.8091C5.9024 27.8286 5.81129 27.8271 5.7242 27.8049C5.16722 27.5957 4.6238 27.3521 4.0971 27.0754C3.95558 26.9462 3.78206 26.8572 3.59456 26.8178C3.40705 26.7783 3.21239 26.7897 3.0308 26.8509C2.97642 27.0197 2.97409 27.201 3.02414 27.3711C3.07418 27.5413 3.17428 27.6924 3.3114 27.8049L4.4338 28.6467L4.9389 29.0957C4.2089 30.0497 5.1073 29.1518 4.3216 29.9374L2.806 31.5088C1.8519 32.6312 0.8979 33.8097 0 34.9882C1.01 36.3912 -0.2245 38.187 2.6376 37.7382C3.8161 38.131 2.1886 37.0082 3.4794 36.8964C3.76225 36.8585 4.02159 36.7188 4.2089 36.5035C5.163 34.9322 6.3976 33.4735 7.3516 31.7895C7.80721 30.9229 8.53755 30.2321 9.4281 29.8253C10.3821 29.6008 11.3922 29.3202 12.2902 29.0396C13.4856 28.6894 14.6209 28.1596 15.6571 27.4683C15.8579 27.3642 16.0639 27.2705 16.2744 27.1877L16.4428 28.0856C16.5143 30.5321 16.8721 32.9618 17.5091 35.325L17.8458 36.6719C17.8458 36.8402 17.8458 37.177 17.7897 37.177C17.453 37.3453 17.5652 37.6259 17.5652 37.8504C17.882 39.2599 18.4321 40.6066 19.1927 41.8349C19.4502 42.157 19.7526 42.4405 20.0906 42.6767C20.2207 42.7866 20.3749 42.8643 20.5407 42.9033C20.7065 42.9423 20.8791 42.9416 21.0446 42.9012C21.0446 42.2277 21.6058 42.4522 22.0546 42.3961C22.0399 42.2989 22.0598 42.1996 22.1107 42.1155L22.279 41.891L22.7841 42.3961C22.8471 41.9308 22.8846 41.4624 22.8963 40.9931C22.8963 40.3758 22.8402 39.7585 22.8402 39.1411C22.8023 38.2568 22.7086 37.3759 22.5596 36.5035C22.3352 35.3923 22.3352 34.2475 22.5596 33.1364C22.6247 32.7655 22.6623 32.3904 22.6719 32.014C22.728 30.5549 22.728 29.0396 22.728 27.6367C22.8402 27.5244 22.8963 27.4683 22.9525 27.4683C22.9525 27.4122 23.0086 27.4122 23.0647 27.356C23.4575 27.1316 23.5698 26.4581 23.2331 26.402C23.1208 26.5143 23.0647 26.6826 22.8402 26.9071C22.8402 26.5143 22.8402 26.2337 23.1208 26.1214C23.5698 25.9531 23.5698 25.6163 23.6259 25.2235C23.6259 24.7184 23.7381 24.1572 23.7381 23.6522C23.7371 23.5007 23.7786 23.3519 23.858 23.2228C23.9374 23.0938 24.0514 22.9896 24.1871 22.9222C25.7023 22.0243 27.1053 21.0141 28.6771 20.2285C28.9577 20.1162 29.2944 20.004 29.4071 19.6673C29.0143 19.4989 28.7337 19.2744 28.3971 19.1622C28.1734 19.0435 27.9161 19.0039 27.6671 19.05C26.879 19.1096 26.1131 19.3393 25.4223 19.7234L24.2999 20.2285L24.1871 20.1165Z" fill="black"/>
<path d="M34.5686 28.6467C35.1859 26.5142 36.5328 24.6621 37.2623 22.3051C37.5429 21.1266 37.6552 21.9684 37.9358 20.846C38.102 20.4157 38.1632 19.952 38.1144 19.4933C38.0656 19.0346 37.9082 18.5942 37.6552 18.2084C37.0861 17.6259 36.5784 16.9866 36.1399 16.3003C35.832 16.0029 35.4402 15.807 35.0175 15.7391C34.5584 15.6183 34.0885 15.5431 33.6146 15.5147C33.0534 15.4025 32.8289 15.5146 32.6046 16.2447C32.1557 17.1425 31.8189 18.0404 31.4261 19.0506C31.2706 19.3965 31.1394 19.7528 31.0333 20.1168C30.5307 21.4134 30.2096 22.7731 30.0792 24.1574C29.8202 25.1502 29.6512 26.1643 29.5742 27.1874C29.4619 28.6465 29.4058 30.1056 29.3497 31.5647C29.3218 32.5405 29.3781 33.5169 29.518 34.483C29.7425 35.6054 30.1915 36.4471 31.0894 36.6716C31.2016 36.7838 31.3139 36.8962 31.4261 36.7838C31.8352 36.9682 32.2964 37.0016 32.7278 36.8784C33.1592 36.7551 33.5331 36.4831 33.7831 36.1104C33.8954 35.9982 34.0637 35.942 34.0637 35.8298C34.7773 34.7828 35.397 33.6748 35.9157 32.5187C36.084 32.0698 36.3085 31.6208 36.4207 31.228C36.8136 29.9934 37.4307 28.9271 37.936 27.7486C38.2727 26.9629 38.666 26.2895 38.946 25.5038C39.2842 24.4929 39.7165 23.516 40.2371 22.5857C40.2932 22.4173 40.4615 22.249 40.4054 22.0245C40.449 21.6688 40.5635 21.3253 40.7421 21.0145L41.5278 19.6117L41.7523 19.331C41.7523 19.2187 41.8645 19.2749 41.9206 19.2749C41.9531 19.3763 41.9649 19.4832 41.9552 19.5892C41.9456 19.6953 41.9147 19.7983 41.8645 19.8922L41.6962 20.9023C41.6645 21.3725 41.6083 21.8408 41.5278 22.3053C41.3299 23.3698 41.3876 24.4662 41.6962 25.504C41.7927 25.8652 41.9761 26.1972 42.2305 26.4711C42.4848 26.745 42.8023 26.9525 43.1553 27.0754C43.5571 27.2004 43.9507 27.3503 44.3338 27.5243C44.3958 27.579 44.4756 27.6092 44.5582 27.6092C44.6409 27.6092 44.7207 27.579 44.7827 27.5243C44.9293 27.4078 45.1031 27.3306 45.2878 27.2998C45.4052 27.3025 45.5216 27.2786 45.6285 27.23C45.7354 27.1815 45.8299 27.1094 45.9051 27.0193L46.0735 26.907C46.0735 26.8509 46.1857 26.7948 46.2418 26.7386L46.4102 26.5703C46.4924 26.5346 46.5653 26.4806 46.6237 26.4126C46.682 26.3445 46.7241 26.2641 46.7469 26.1775L46.9153 25.8968C46.9882 25.8477 47.0473 25.7806 47.0866 25.7019C47.1259 25.6233 47.1443 25.5358 47.1398 25.448C46.9153 25.1674 46.7469 25.1674 46.5786 25.448C46.3832 25.6834 46.1566 25.891 45.9051 26.0652L45.6807 26.3458C45.5684 26.458 45.1756 26.2897 45.0633 26.4019C45.0072 26.458 45.0633 26.2336 44.7827 26.0652C44.8108 25.5606 44.8108 25.0547 44.7827 24.5501C44.8201 23.8014 44.8014 23.0511 44.7266 22.3053L44.3338 20.0044V19.7798C43.9971 19.0498 43.6038 18.5452 42.9308 18.5452C42.5941 18.5452 42.2574 18.6014 41.8645 18.6014C41.6741 18.6397 41.4947 18.72 41.3394 18.8365C41.1841 18.953 41.0567 19.1027 40.9666 19.2747C40.7077 19.7671 40.4073 20.2364 40.0687 20.6777C39.784 21.221 39.4653 21.7459 39.1147 22.2491C38.1535 24.0335 37.2916 25.8696 36.5332 27.7491C36.3083 28.7027 33.7271 31.3404 34.5686 28.6467Z" fill="black"/>
<path d="M55.2759 20.1165C54.4902 22.193 52.6944 25.6724 53.929 21.0144C54.4341 19.2744 54.659 17.9844 55.2759 16.132C57.1278 14.9535 56.9595 16.0759 56.3983 17.4789C55.967 18.3326 55.592 19.2137 55.2759 20.1165ZM57.8012 12.7649C57.4645 13.7749 55.8932 13.7189 56.1177 12.2598C56.286 11.6425 56.3983 11.0252 56.5105 10.464L56.8472 9.73397L57.0717 9.22897C57.1998 8.72189 57.3882 8.232 57.6329 7.76977C57.7382 7.53433 57.9149 7.33801 58.138 7.20867C58.2502 7.09637 58.4186 7.15247 58.4747 7.37697C58.5494 7.87841 58.5682 8.38658 58.5308 8.89217L58.3063 10.2391L58.138 11.0248L57.8012 12.7649ZM63.4132 28.1977C62.9081 29.0957 62.6275 30.3303 62.1224 31.2843C61.1751 32.752 60.0643 34.1075 58.8114 35.3249C58.4747 35.6055 56.7914 36.9524 56.4544 37.1769C55.8142 37.4341 55.1206 37.5305 54.4344 37.4575C54.3221 37.4575 54.266 37.4013 54.2099 37.4013C54.011 37.2015 53.8409 36.9748 53.7048 36.7279C53.4056 35.8956 53.2169 35.0277 53.1436 34.1464C53.139 31.4972 53.5558 28.8641 54.3783 26.3458C54.6589 25.953 54.6027 25.4479 54.8272 25.0551C55.1259 24.5984 55.3708 24.1087 55.5572 23.5959C55.723 23.013 55.9487 22.4488 56.2306 21.9124L56.5112 21.295C57.2412 19.4431 58.1387 17.6473 58.8121 15.7392L58.9243 15.5709C59.0366 15.3464 59.1488 15.178 59.3733 15.1219L60.664 14.9535C60.9128 14.9242 61.1576 14.8678 61.394 14.7852C61.7771 14.6743 62.1738 14.6176 62.5725 14.6168C63.2344 14.5823 63.8918 14.4884 64.5367 14.3362C64.5442 14.3363 64.5515 14.335 64.5584 14.3322C64.5653 14.3295 64.5715 14.3253 64.5768 14.3201C64.582 14.3149 64.5861 14.3086 64.5889 14.3017C64.5917 14.2949 64.593 14.2875 64.5928 14.2801L65.8274 13.7189L66.2203 13.4383L66.4448 13.1016C66.0934 13.0224 65.7372 12.9662 65.3785 12.9332H62.4592L60.3827 13.1016C60.1885 13.1245 59.992 13.0853 59.8215 12.9894C59.8678 12.8444 59.8868 12.6922 59.8777 12.5404L60.2144 11.1935L60.3827 10.2956C60.4391 10.0367 60.4391 9.76874 60.3827 9.50987C60.3143 9.21527 60.2767 8.91435 60.2705 8.61197C60.2872 7.99037 60.1524 7.37405 59.8777 6.81617C59.6532 6.19887 59.3726 5.86217 58.5869 6.03047C58.5308 6.08667 58.5308 6.08667 58.4747 6.08667C58.0818 6.08667 57.7447 6.25497 57.4084 6.14277C57.2777 6.1232 57.1443 6.13321 57.0179 6.17207C56.8916 6.21092 56.7756 6.27763 56.6784 6.36727L56.2855 6.81617C55.5645 7.51447 54.9415 8.30736 54.4336 9.17317C53.8163 10.1832 53.4236 11.3058 52.8622 12.372C52.7094 12.8344 52.5218 13.2847 52.301 13.7189C52.2529 13.8349 52.1762 13.9369 52.0781 14.0154C51.98 14.0939 51.8636 14.1464 51.7398 14.1679C51.1935 14.2113 50.6501 14.2862 50.1124 14.3923L47.8115 14.8974C47.7126 14.9195 47.6179 14.9574 47.5309 15.0097C47.5804 15.2123 47.6996 15.3911 47.8676 15.5147L48.8776 16.132C49.2144 16.4127 49.5511 16.3565 49.9439 16.4127C51.2908 16.6927 49.8317 18.8258 49.5511 20.0604L49.047 21.8562C48.9015 22.2194 48.7886 22.5949 48.7099 22.9783L48.4293 24.1007C47.0824 28.6464 46.5212 29.3198 46.5212 34.0339C46.5795 34.9631 46.7299 35.8843 46.9702 36.7839C47.1756 37.3163 47.4391 37.8245 47.7559 38.2992C48.3171 39.4215 50.0568 41.1612 51.2353 41.3292C51.9576 41.4607 52.6959 41.4796 53.4239 41.3853C54.297 41.1572 55.1435 40.8375 55.9493 40.4313C56.6227 39.9823 57.8574 38.5232 58.5869 38.0182C58.8675 37.7937 61.5051 34.4265 61.7296 34.0337L63.2448 31.1716L64.3111 28.4783C64.6112 27.813 64.837 27.1166 64.9845 26.4019C64.9284 26.1213 65.0968 26.1213 65.0968 25.7846C65.1529 25.6162 64.7601 25.8407 64.4795 25.7846L63.4132 28.1977Z" fill="black"/>
<path d="M86.1406 24.4377V24.3816C86.1407 24.389 86.1394 24.3964 86.1366 24.4033C86.1338 24.4102 86.1297 24.4164 86.1244 24.4217C86.1192 24.4269 86.1129 24.431 86.1061 24.4338C86.0992 24.4366 86.0918 24.4379 86.0844 24.4377H86.1406ZM91.4158 21.4634C91.2147 21.5231 91.0077 21.5607 90.7985 21.5756V21.5195L91.4719 21.3512C91.4719 21.4073 91.4158 21.4073 91.4158 21.4634ZM97.5889 19.6115C97.3599 19.7384 97.1144 19.8329 96.8594 19.8921C96.9393 19.7781 97.0514 19.6905 97.1813 19.6405C97.3113 19.5905 97.4532 19.5805 97.5889 19.6115ZM93.7728 20.6215C94.1657 20.397 94.5585 20.2287 94.7828 20.4532L93.7728 20.6215ZM94.7828 20.4532C95.0669 20.2352 95.3929 20.0779 95.7404 19.991C96.0878 19.9041 96.4494 19.8895 96.8028 19.9481C96.3849 20.2657 95.8678 20.4248 95.3437 20.397C95.1551 20.3905 94.9665 20.4095 94.783 20.4533L94.7828 20.4532ZM86.4771 22.9783C86.4466 23.0086 86.4269 23.0481 86.421 23.0906L85.5231 23.2589C85.6914 22.6416 85.7475 22.5855 86.0842 22.5289C87.2066 22.2483 88.329 22.0238 89.3953 21.7989C90.0687 21.6306 90.0687 21.6306 90.9105 21.9673C90.0691 22.2116 89.2034 22.3621 88.329 22.4162C87.5598 22.6168 86.7668 22.7113 85.972 22.6968L85.8598 22.8652L86.4771 22.9783ZM97.0271 15.9073C97.2516 16.3001 97.8128 16.0195 98.3179 15.9073L99.2158 15.7389C99.1773 15.8764 99.0974 15.9986 98.9869 16.089C98.8765 16.1794 98.7408 16.2335 98.5985 16.244C97.9251 16.4685 97.2516 16.6929 96.5785 16.8613L95.5685 17.2541C95.9053 17.5909 96.2985 17.3103 96.8032 17.198C96.6058 17.4503 96.3289 17.6283 96.0175 17.7031L94.1656 18.2082C93.9997 18.2037 93.8386 18.2641 93.7166 18.3765C93.1236 18.8205 92.4294 19.1098 91.6966 19.2183C85.6357 22.5294 87.0948 17.8153 89.7324 14.5043C90.2375 13.6064 90.6864 12.6523 91.1915 11.6983C93.0996 8.66833 92.5945 8.49953 96.6351 7.82613C97.7575 7.60163 98.936 7.37713 100.114 7.09613C100.718 6.93388 101.344 6.87694 101.966 6.92783C102.49 6.89973 103.014 6.89973 103.538 6.92783C103.987 6.92783 104.436 6.98393 104.997 7.04003C104.558 7.35403 104.018 7.49399 103.482 7.43283C104.099 7.76953 105.109 7.20843 105.839 7.43283L105.39 7.71343L106.12 7.82573L105.839 8.05013L105.895 8.10633C106.243 8.18062 106.565 8.34376 106.831 8.57981C107.096 8.81587 107.296 9.11677 107.411 9.45313C107.635 9.90213 107.298 10.4072 106.905 10.9684C106.155 11.9593 105.172 12.7497 104.043 13.2693L100.452 14.7284C99.2725 15.1783 98.1501 15.5147 97.0277 15.9076L97.0271 15.9073ZM101.741 1.26013C101.853 1.31623 101.966 1.42843 102.078 1.42843C102.808 1.59683 103.593 1.70903 104.323 1.82133L105.333 2.15803C105.196 2.2363 105.041 2.27515 104.884 2.27023L103.369 2.04583C102.426 1.86499 101.461 1.82713 100.506 1.93353C100.083 2.02654 99.649 2.06428 99.2157 2.04583H97.925C97.6283 1.9974 97.3274 1.97857 97.027 1.98963C96.073 2.15803 95.119 2.32643 94.165 2.43863L89.675 3.11203C89.091 3.14474 88.5275 3.33902 88.0475 3.67323C87.9166 3.78086 87.7632 3.8576 87.5986 3.89773L83.4457 4.73953C83.2212 4.79563 82.9968 4.68343 82.7162 4.68343C83.558 3.95343 84.2875 4.00993 85.1293 3.50493H84.3993C84.5869 3.37572 84.7959 3.28073 85.0166 3.22433C85.1849 3.16813 85.3533 3.22433 85.4094 2.99983C84.3431 3.28043 83.2769 3.61713 82.2106 3.95383C81.6494 4.12223 81.0882 4.34673 80.6954 4.17833C80.5714 4.27222 80.4677 4.39023 80.3905 4.52526C80.3134 4.6603 80.2643 4.80955 80.2464 4.96403C80.2364 5.19221 80.1987 5.41834 80.1342 5.63743C79.7873 6.42217 79.5603 7.25455 79.4607 8.10673C79.2694 8.96204 79.3081 9.85277 79.573 10.6882C79.6335 10.8231 79.7407 10.9314 79.8749 10.9933C80.0091 11.0552 80.1612 11.0664 80.303 11.0249C86.3639 9.50963 84.2314 10.8004 81.9866 15.4022L79.3501 21.1267C79.235 21.6756 78.9384 22.1698 78.5083 22.5297C78.4522 22.5297 78.3961 22.6419 78.3961 22.698C77.9793 23.5579 77.6593 24.4613 77.442 25.3918C77.2619 26.1711 77.037 26.9393 76.7686 27.6927L75.534 31.4527C74.6922 34.1464 73.9065 36.784 73.177 39.4778C72.8402 40.6563 73.1208 41.3297 74.0188 41.6664C74.0749 41.7225 74.131 41.7225 74.2432 41.7225C74.309 41.7672 74.3886 41.7871 74.4677 41.7787C74.9423 41.6739 75.4107 41.5427 75.8707 41.3858C76.3453 41.281 76.8137 41.1499 77.2737 40.993C78.1716 40.7124 79.1256 40.8246 80.0237 39.8145H80.0799C80.2312 39.7733 80.3662 39.6866 80.4665 39.5662C80.5669 39.4457 80.6279 39.2973 80.6411 39.141C80.6972 38.8605 80.6411 38.5799 80.6972 38.2431C80.9934 37.2466 81.2371 36.2352 81.4272 35.2131C81.5622 34.4837 81.769 33.7693 82.0445 33.0805C82.269 32.4071 82.4935 31.6776 82.6619 31.0041C82.7822 30.4589 82.9707 29.931 83.223 29.4328C83.2676 29.367 83.2875 29.2875 83.2792 29.2083C83.1669 28.9277 83.5037 28.6471 83.5598 28.3665L83.7281 27.5808V27.4683C83.9526 27.0755 84.4016 26.6265 84.2332 26.1775C84.2637 26.1473 84.2834 26.1079 84.2893 26.0653C84.3854 25.7912 84.558 25.5504 84.7868 25.3714C85.0156 25.1924 85.2909 25.0827 85.5801 25.0553L85.8607 24.8869C85.4984 24.8835 85.138 24.9404 84.7944 25.0553C84.5138 25.1115 84.4576 24.9992 84.626 24.7185C84.945 24.7278 85.2643 24.709 85.5801 24.6624C85.8045 24.6624 85.9168 24.7185 86.0851 24.4379C85.0751 24.6063 85.0189 24.6063 84.7944 24.3818L85.6923 23.7645L85.1872 23.5961L86.7586 23.2033C87.4016 22.9564 88.0926 22.8604 88.7786 22.9227C88.9192 22.9388 89.0605 22.8985 89.1714 22.8105C89.2536 22.7173 89.3655 22.6553 89.4881 22.6348C89.6108 22.6144 89.7367 22.6368 89.8448 22.6982C90.1255 22.8666 90.4622 22.7543 90.8548 22.6421L94.1097 21.7442L93.9414 21.4075C93.9975 21.3514 94.0536 21.2952 94.1097 21.2952C95.2321 21.0146 96.3545 20.6218 97.4769 20.3973C98.5203 20.1204 99.5349 19.7445 100.507 19.2749C100.108 19.3647 99.7144 19.4771 99.3283 19.6117V19.4433C99.7859 19.2322 100.254 19.0449 100.731 18.8821C101.236 18.7137 101.685 18.6576 102.134 18.5454V17.9842L103.649 17.423L104.547 17.1424C104.94 16.974 105.277 17.0302 105.726 16.6373C105.333 16.5251 104.828 16.9179 104.491 16.6934L105.782 16.1322C106.163 15.9047 106.557 15.6986 106.961 15.5149C106.955 15.4724 106.935 15.433 106.904 15.4027L106.343 15.6833V15.5149L106.68 15.2905C107.395 14.8473 108.055 14.3197 108.644 13.7191C108.905 13.462 109.115 13.1572 109.261 12.8212C109.654 12.1478 110.271 11.5866 110.664 10.9131C111.509 9.70514 111.851 8.21595 111.618 6.76033C111.45 6.19913 111.17 5.75033 110.945 5.18893C110.721 4.57163 110.047 4.40333 109.654 3.89823C109.654 3.89082 109.653 3.88345 109.65 3.87657C109.648 3.86969 109.643 3.86344 109.638 3.8582C109.633 3.85296 109.627 3.84883 109.62 3.84607C109.613 3.84331 109.606 3.84197 109.598 3.84213C109.149 4.01043 109.149 3.67373 108.925 3.56153C108.767 3.41715 108.598 3.28575 108.42 3.16863L105.894 2.15863C104.574 1.61788 103.168 1.31385 101.742 1.26043L101.741 1.26013Z" fill="black"/>
<path d="M125.648 25.6724C124.918 26.4024 123.796 28.2539 123.066 28.9834L122.168 29.7691L120.934 30.4986C120.59 30.7075 120.234 30.8949 119.867 31.0598C119.489 31.2061 119.092 31.3005 118.689 31.3404C118.588 31.341 118.488 31.3154 118.399 31.2663C118.311 31.2171 118.237 31.146 118.184 31.0598C117.966 30.6114 117.797 30.1411 117.679 29.6569C117.624 29.256 117.682 28.8477 117.847 28.4783L118.633 26.907C118.689 26.7948 118.745 26.7386 118.745 26.6264C118.742 26.0458 118.566 25.4792 118.24 24.9989L117.903 24.6622C117.752 24.4909 117.558 24.3639 117.34 24.2947C117.123 24.2255 116.891 24.2167 116.669 24.2694L115.49 26.1774C115.204 26.6125 114.885 27.0252 114.536 27.4121L114.087 27.9171C113.868 28.2848 113.583 28.6084 113.245 28.8712C112.59 29.3693 111.971 29.9132 111.393 30.4986L111.169 30.667C111.169 30.5548 111.113 30.4986 111.169 30.4425C111.293 29.7931 111.52 29.1678 111.842 28.5906C111.897 28.4662 111.973 28.3523 112.067 28.2539L112.628 27.4682C113.045 26.8465 113.495 26.247 113.975 25.6724L114.648 24.9424C115.207 24.2524 115.827 23.6139 116.5 23.0344V22.9783C116.933 22.6274 117.403 22.3262 117.903 22.0804C118.115 21.9938 118.286 21.829 118.38 21.6201C118.474 21.4112 118.484 21.1742 118.408 20.958L118.24 20.5091C117.967 20.1326 117.646 19.7931 117.286 19.4991C117.209 19.4289 117.109 19.389 117.005 19.3869C116.725 19.3869 116.5 19.1063 116.22 19.1063C116.177 19.1022 116.136 19.0822 116.107 19.0502C115.995 18.8257 115.771 18.8257 115.49 18.7696C115.371 18.7579 115.256 18.7196 115.153 18.6573C114.753 18.5969 114.359 18.503 113.975 18.3767H113.806C113.448 18.3834 113.092 18.4209 112.74 18.489C112.566 18.4933 112.395 18.5314 112.235 18.6012C111.442 19.0725 110.723 19.6589 110.103 20.3412C109.218 21.3585 108.393 22.4266 107.633 23.54C107.577 23.5961 107.521 23.6523 107.521 23.7084C106.989 24.3429 106.537 25.0402 106.174 25.7848C105.773 26.5621 105.617 27.4424 105.725 28.3102C105.77 29.1147 106.048 29.8886 106.527 30.5367C107.006 31.1848 107.663 31.6789 108.419 31.958C108.71 32.0656 108.991 32.197 109.261 32.3508C109.614 32.5304 109.999 32.6378 110.394 32.6667C110.789 32.6956 111.186 32.6455 111.562 32.5191C112.035 32.4322 112.467 32.1962 112.796 31.8457C112.827 31.8152 112.866 31.7955 112.909 31.7896L113.526 31.3968C113.889 31.1088 114.285 30.8639 114.704 30.6668C115.065 31.0941 115.529 31.4225 116.051 31.6208L116.332 31.7892C116.915 32.1646 117.562 32.4309 118.24 32.5749H118.745C119.182 32.5141 119.613 32.4203 120.036 32.2943C120.496 32.1685 120.965 32.0747 121.439 32.0137C121.831 31.9064 122.195 31.7149 122.505 31.4525C122.842 31.1158 123.291 30.779 123.627 30.3862C123.694 30.2826 123.792 30.2037 123.908 30.1617C124.197 30.013 124.433 29.7775 124.581 29.4883C124.637 29.3199 124.806 29.2077 124.918 29.0955L125.535 28.3655C125.648 28.3094 125.704 28.141 125.872 28.0849C126.294 27.4931 126.598 26.8265 126.77 26.1207C126.525 25.8311 126.188 25.6333 125.816 25.5595L125.648 25.6724Z" fill="black"/>
<path d="M144.447 25.2795C144.166 25.4479 144.335 24.4377 144.167 24.6622C143.886 25.0551 142.988 25.5601 142.707 25.953C142.202 26.683 140.631 27.8049 140.126 28.4783L139.284 29.4883C138.289 30.4455 137.24 31.3449 136.141 32.182C134.677 33.2789 132.992 34.0448 131.203 34.4268C130.81 34.4829 129.407 35.0441 129.126 34.7074C128.958 34.4963 128.807 34.271 128.678 34.034L128.172 32.9116C128.007 32.5421 127.949 32.1339 128.004 31.7331C128.028 31.4286 128.084 31.1276 128.172 30.8352C128.416 29.8869 128.754 28.9656 129.182 28.0852L130.529 25.2792C130.855 24.5688 131.25 23.8922 131.708 23.2592C132.219 22.6699 132.671 22.0306 133.055 21.3512L133.279 21.1828C133.241 21.2909 133.222 21.4048 133.223 21.5195C132.809 22.5843 132.453 23.6709 132.157 24.7745L131.988 25.5601C131.959 25.6653 131.965 25.7772 132.006 25.8787C132.046 25.9801 132.119 26.0654 132.213 26.1213L132.381 26.2336C132.748 26.3847 133.089 26.593 133.391 26.8509C133.485 26.9304 133.605 26.9706 133.728 26.9631C133.84 26.9631 133.952 26.907 134.065 26.907C134.236 26.8708 134.394 26.7891 134.522 26.6706C134.651 26.5521 134.745 26.4011 134.795 26.2336C135.204 25.3126 135.524 24.3541 135.749 23.3715C135.795 23.0934 135.814 22.8114 135.805 22.5297C135.804 22.0014 135.748 21.4746 135.636 20.9583C135.535 20.6281 135.46 20.2903 135.412 19.9483L135.749 19.4432C135.693 19.3871 135.749 19.2748 135.693 19.2187C135.628 19.1095 135.589 18.9869 135.579 18.8602C135.569 18.7336 135.589 18.6064 135.636 18.4887C135.66 18.3751 135.652 18.2571 135.612 18.148C135.573 18.039 135.503 17.9431 135.412 17.8714C135.244 17.7591 135.131 17.8152 134.963 17.9275C134.941 17.9488 134.914 17.9649 134.885 17.9746C134.856 17.9843 134.825 17.9873 134.795 17.9836C134.739 17.9836 134.682 17.9275 134.626 17.9275C134.096 17.5252 133.439 17.3261 132.774 17.3663C132.774 17.4224 132.774 17.4224 132.718 17.3663C132.27 17.329 131.82 17.4267 131.428 17.6469C131.266 17.7108 131.096 17.7486 130.922 17.7591C130.498 17.76 130.084 17.8978 129.744 18.152C129.014 18.657 128.397 19.2743 127.724 19.8355C127.152 20.338 126.66 20.9248 126.265 21.5755L125.816 22.249C125.173 23.3006 124.629 24.4089 124.188 25.56L123.739 26.7385C123.573 27.2876 123.461 27.8514 123.403 28.4221C123.29 29.3728 123.29 30.3334 123.403 31.2842C123.429 31.9843 123.602 32.671 123.912 33.2996C124.221 33.9281 124.66 34.4844 125.199 34.932C125.876 35.4299 126.611 35.8444 127.387 36.1666C128.117 36.4472 129.8 37.1766 130.586 37.0084C131.539 36.9522 132.495 36.9522 133.448 37.0084C134.446 36.6831 135.406 36.2504 136.31 35.7177C136.994 35.3194 137.634 34.849 138.218 34.3147L140.014 32.4066C140.415 31.9021 140.789 31.3777 141.136 30.8353C141.193 30.8353 141.193 30.723 141.193 30.6669C141.474 30.0567 141.813 29.4742 142.203 28.9269L143.213 27.5239C143.732 26.8402 144.148 26.084 144.447 25.2795Z" fill="black"/>
<path d="M141.696 30.2742C141.811 30.6587 141.811 31.0682 141.696 31.4527V30.2742ZM153.425 24.55C154.828 22.7541 155.895 22.4736 154.997 25.3918C154.383 27.0729 153.338 28.5631 151.967 29.713C151.63 30.0497 149.89 30.6109 150.508 29.713C150.676 29.2079 151.013 28.8151 151.238 28.2539C151.517 27.7947 151.743 27.3051 151.911 26.7948C152.29 25.9689 152.801 25.2106 153.425 24.55ZM152.976 33.9781C153.145 33.9219 153.145 33.6975 153.313 33.6975C153.546 33.5797 153.791 33.4857 154.043 33.4169C154.558 33.2053 155.005 32.8558 155.334 32.4069C155.614 32.1824 155.839 31.8457 156.176 31.5651C156.628 30.9479 156.988 30.2672 157.242 29.5451L157.354 28.9839C157.774 27.6593 157.982 26.2767 157.971 24.8872C158.001 24.1459 157.783 23.4158 157.354 22.8108C157.259 22.6928 157.183 22.5601 157.13 22.4179C157.08 22.2766 156.989 22.1533 156.869 22.0634C156.75 21.9736 156.606 21.9212 156.456 21.9129C155.807 21.8066 155.142 21.8472 154.511 22.0316C153.88 22.2159 153.298 22.5394 152.808 22.9783C151.623 24.1459 150.552 25.4238 149.609 26.7945C148.655 28.0852 148.038 29.6004 147.196 30.8912C146.803 31.5085 146.298 31.5646 146.523 29.7688C146.73 29.0678 146.899 28.3559 147.028 27.6363C147.084 27.3556 147.196 27.1312 147.252 26.7945C147.668 25.3716 148.193 23.9831 148.823 22.6416C149.272 21.5192 149.833 20.3968 150.283 19.3306L150.9 18.1521C151.293 17.2541 151.742 16.4685 152.135 15.6828C152.472 15.132 152.754 14.5491 152.976 13.9428C153.056 13.8231 153.113 13.69 153.145 13.55C153.706 12.7643 154.323 11.9786 154.885 11.0807C155.029 10.9149 155.143 10.7249 155.221 10.5195C155.783 10.0144 156.288 9.3971 156.793 8.9482C157.41 8.3308 157.859 8.2747 158.42 8.7237C158.532 8.892 158.757 9.0043 158.869 9.1726C159.011 9.22579 159.144 9.3016 159.262 9.3971C159.393 9.37344 159.515 9.31363 159.615 9.2244C159.714 9.13517 159.786 9.02006 159.823 8.892V8.387C159.826 7.72736 159.631 7.08209 159.262 6.535C158.581 5.43323 157.706 4.46362 156.681 3.6729C156.072 3.30664 155.554 2.8079 155.165 2.2138C155.053 2.1577 154.941 1.9893 154.885 1.9893C154.388 1.97246 153.898 2.1097 153.482 2.3822C153.033 2.7189 152.64 3.1117 152.247 3.4484C151.286 4.42942 150.421 5.50066 149.666 6.6473C148.451 8.56627 147.345 10.5523 146.355 12.5959C145.962 13.2132 145.737 13.9428 145.345 14.6159C144.671 16.1873 143.998 17.7586 143.493 19.33C143.156 20.1718 142.875 21.1258 142.595 22.0237C142.129 23.5204 141.828 25.0635 141.697 26.6255C141.668 27.1147 141.612 27.6018 141.528 28.0846C141.426 29.204 141.407 30.3296 141.472 31.4518C141.603 32.3251 141.621 33.2114 141.528 34.0894C141.515 34.2047 141.534 34.3215 141.585 34.4261C141.63 35.0305 141.804 35.6183 142.095 36.1504C142.385 36.6826 142.785 37.1469 143.268 37.5127C144.11 38.2427 144.559 38.2427 145.737 37.7372C145.85 37.634 145.983 37.5556 146.128 37.5073C146.274 37.4589 146.427 37.4417 146.579 37.4566C146.86 37.5127 147.028 37.4004 147.253 37.176C147.465 36.8432 147.635 36.4849 147.758 36.1097C147.923 35.7615 148.111 35.4241 148.319 35.0997C148.431 34.9314 148.431 34.5947 148.543 34.4263C149.048 33.6963 149.217 34.2018 149.722 34.8191C150.283 36.0538 151.069 37.2323 151.686 38.2991L152.584 39.4214C152.901 39.7317 153.28 39.972 153.695 40.1267C154.111 40.2813 154.555 40.347 154.997 40.3194C155.585 40.2808 156.167 40.1868 156.737 40.0388C157.579 39.8143 159.768 38.0188 160.609 37.5695C160.96 37.4442 161.284 37.2538 161.563 37.0083C162.012 36.6155 164.65 33.6973 165.043 33.2483C165.38 32.5183 165.885 31.7892 166.221 31.1158V31.0035C166.62 30.2921 166.94 29.5394 167.175 28.7587C167.608 28.1092 167.966 27.4126 168.242 26.6823C168.256 26.4311 168.313 26.1842 168.41 25.9523C168.634 25.3911 167.905 26.0084 167.624 25.2223L167.456 25.8957L167.119 26.6257C166.558 27.5236 166.109 28.5338 165.548 29.4317C164.892 30.6087 164.122 31.7178 163.247 32.7427C162.966 32.9111 160.666 35.3803 160.441 35.4927C159.824 35.7733 157.803 37.4007 157.242 37.5691C156.679 37.8238 156.047 37.883 155.446 37.7375C155.239 37.7307 155.038 37.6633 154.868 37.5436C154.699 37.4239 154.568 37.2572 154.492 37.064C154.13 36.5688 153.81 36.0431 153.538 35.4927C153.233 35.0399 153.04 34.5207 152.976 33.9783V33.9781Z" fill="black"/>
<path d="M165.546 27.2437C165.678 27.6036 165.697 27.9949 165.602 28.3661L165.434 30.1061C165.378 30.05 165.322 30.05 165.322 29.9939C165.164 29.136 165.202 28.2534 165.434 27.4124C165.434 27.3559 165.49 27.2998 165.546 27.2437ZM165.546 30.9476C165.715 31.2282 165.715 31.5649 165.883 31.9016C166.011 32.1752 166.161 32.4379 166.332 32.6873C166.22 32.6873 166.164 32.7434 166.164 32.6873C166.016 32.647 165.88 32.5697 165.771 32.4628C165.603 32.2708 165.453 32.0642 165.322 31.8455C164.744 30.6011 164.587 29.2027 164.873 27.861L165.041 27.0754C165.125 26.8024 165.238 26.5391 165.378 26.2897V26.6825C165.367 26.8557 165.33 27.0262 165.266 27.1876C165.08 27.9968 165.004 28.8274 165.041 29.6569C165.041 29.713 164.985 29.7691 165.041 29.8252C165.109 30.5197 165.28 31.2003 165.546 31.8452C165.546 31.9013 165.602 31.9013 165.658 31.9575C165.771 31.733 165.602 31.6207 165.602 31.4524L165.434 31.0034C165.464 30.973 165.504 30.9534 165.546 30.9476ZM174.076 21.1267C174.918 20.4533 176.714 19.9482 175.816 22.0807C175.48 23.0348 175.255 23.2031 174.862 24.1571C174.686 24.5583 174.366 24.8788 173.964 25.0551C173.752 25.1234 173.526 25.1333 173.309 25.084C173.091 25.0346 172.891 24.9277 172.73 24.7745C172.587 24.6136 172.416 24.4804 172.225 24.3816C171.944 24.2133 171.888 23.9327 172.112 23.5398L172.505 22.9225C172.953 22.2618 173.481 21.6587 174.076 21.1267H174.076ZM171.046 25.1112C171.215 24.9428 171.383 24.9989 171.439 25.1673C171.72 25.6162 171.944 26.1213 172.169 26.5703C172.225 26.7386 172.337 26.8509 172.225 27.0754C172.238 27.1769 172.276 27.2733 172.337 27.3554C172.674 27.5238 172.955 28.0289 173.404 27.9728C173.411 27.9726 173.418 27.974 173.425 27.9767C173.432 27.9795 173.438 27.9836 173.444 27.9889C173.449 27.9941 173.453 28.0004 173.456 28.0072C173.459 28.0141 173.46 28.0215 173.46 28.0289C173.572 28.2534 173.74 28.1972 173.909 28.2534C174.273 28.3082 174.645 28.2494 174.975 28.085C175.192 28.0221 175.394 27.9148 175.568 27.7699C175.742 27.625 175.884 27.4457 175.985 27.2432C176.216 26.8929 176.405 26.5161 176.546 26.1208C176.718 25.7111 176.924 25.3168 177.163 24.9423C177.582 24.2738 177.868 23.5306 178.005 22.7536C178.146 22.0876 178.146 21.3996 178.005 20.7336C177.965 20.5519 177.889 20.3802 177.781 20.2286C177.405 19.8142 177.102 19.34 176.883 18.8256C176.799 18.6095 176.664 18.4169 176.49 18.2644C175.985 17.9277 173.852 17.3665 173.291 17.0859C173.179 16.9736 173.123 16.7492 172.954 16.6369C172.842 16.5247 172.618 16.5808 172.449 16.4125C172.281 16.1318 172 16.188 171.719 16.3002L171.158 16.5808C170.227 17.179 169.379 17.8959 168.633 18.7133C167.85 19.4972 167.154 20.3626 166.556 21.2948C165.945 22.1983 165.419 23.1564 164.985 24.1569C164.763 24.5337 164.629 24.9557 164.592 25.3916C164.862 24.9277 165.088 24.4391 165.266 23.9325C165.31 23.7958 165.384 23.6702 165.48 23.5638C165.577 23.4574 165.695 23.3726 165.827 23.3151C165.883 23.8202 165.883 23.8202 165.715 24.1569C164.962 25.7159 164.56 27.4207 164.536 29.1516C164.548 29.9525 164.68 30.7471 164.929 31.5086C165.09 31.9602 165.36 32.3651 165.715 32.6871C166.613 33.4728 167.005 34.4271 168.97 35.2125C170.541 35.6692 172.161 35.933 173.796 35.9982C174.482 35.9488 175.161 35.8169 175.816 35.6053L176.321 35.437C176.958 35.3017 177.566 35.0545 178.117 34.707C178.441 34.4987 178.778 34.3112 179.127 34.1458L179.8 33.6969C180.075 33.5087 180.338 33.3024 180.586 33.0795C181.168 32.6391 181.712 32.151 182.213 31.6204C182.503 31.275 182.822 30.9557 183.167 30.6664C183.384 30.4683 183.573 30.2417 183.729 29.993C183.616 29.9368 183.616 29.8807 183.56 29.8246C183.616 29.544 183.897 29.4879 183.953 29.1512L183.504 29.3195L183.729 28.9828L184.29 28.3094C184.519 27.8821 184.802 27.4861 185.132 27.1309C185.257 27.0035 185.352 26.8503 185.412 26.6819C185.62 26.235 185.771 25.7636 185.861 25.2789C185.56 25.4113 185.32 25.6516 185.188 25.9524C184.688 26.6572 184.124 27.3147 183.504 27.9165L182.494 29.0389L182.326 29.2073C181.372 29.993 180.474 30.8348 179.52 31.5643C178.37 32.4919 177.056 33.1961 175.647 33.6407C174.926 33.7894 174.194 33.8832 173.459 33.9213C172.561 33.8652 171.607 32.8551 170.821 32.0694C170.653 31.8449 170.204 30.6103 170.035 30.3858C169.896 30.0669 169.819 29.7239 169.811 29.3758C169.82 29.0008 169.801 28.6256 169.755 28.2534C169.699 28.2534 169.643 28.1972 169.53 28.1411L169.699 26.9626H169.811C169.817 27.1143 169.798 27.266 169.755 27.4116H170.148V27.3554C170.092 27.2993 170.035 27.2993 169.923 27.2993C169.979 26.9626 169.979 26.9065 170.092 26.8504C170.26 26.7943 170.316 26.7381 170.372 26.5137C170.375 26.4567 170.392 26.4014 170.422 26.3525C170.451 26.3036 170.492 26.2626 170.541 26.2331C170.599 26.209 170.65 26.1707 170.689 26.1216C170.728 26.0726 170.754 26.0144 170.765 25.9525C170.765 25.6162 170.99 25.3918 171.046 25.1112H171.046Z" fill="black"/>
<path d="M190.799 20.1165C190.014 22.193 188.218 25.6724 189.453 21.0144C189.958 19.2744 190.183 17.9844 190.799 16.132C192.651 14.9535 192.483 16.0759 191.922 17.4789C191.49 18.3326 191.115 19.2137 190.799 20.1165ZM193.325 12.7649C192.988 13.7749 191.417 13.7189 191.641 12.2598C191.81 11.6425 191.922 11.0252 192.034 10.464L192.371 9.73397L192.595 9.22897C192.723 8.72192 192.912 8.23204 193.156 7.76977C193.262 7.53434 193.438 7.33803 193.661 7.20867C193.774 7.09637 193.942 7.15247 193.998 7.37697C194.073 7.8784 194.092 8.38658 194.054 8.89217L193.83 10.2391L193.661 11.0248L193.325 12.7649ZM198.937 28.1977C198.432 29.0957 198.152 30.3303 197.646 31.2843C196.699 32.752 195.588 34.1075 194.335 35.3249C193.999 35.6055 192.315 36.9524 191.978 37.1769C191.338 37.4341 190.644 37.5305 189.958 37.4575C189.846 37.4575 189.79 37.4013 189.734 37.4013C189.535 37.2015 189.365 36.9748 189.229 36.7279C188.93 35.8956 188.741 35.0277 188.668 34.1464C188.663 31.4972 189.08 28.8641 189.902 26.3458C190.183 25.953 190.127 25.4479 190.351 25.0551C190.65 24.5984 190.895 24.1087 191.081 23.5959C191.247 23.013 191.473 22.4488 191.755 21.9124L192.035 21.295C192.765 19.4431 193.662 17.6473 194.336 15.7392L194.448 15.5709C194.56 15.3464 194.672 15.178 194.897 15.1219L196.188 14.9535C196.436 14.9242 196.681 14.8678 196.918 14.7852C197.301 14.6743 197.697 14.6176 198.096 14.6168C198.758 14.5824 199.415 14.4884 200.06 14.3362C200.068 14.3363 200.075 14.335 200.082 14.3322C200.089 14.3295 200.095 14.3254 200.1 14.3201C200.106 14.3149 200.11 14.3086 200.113 14.3017C200.115 14.2949 200.117 14.2875 200.117 14.2801L201.351 13.7189L201.744 13.4383L201.968 13.1016C201.617 13.0224 201.261 12.9662 200.902 12.9332H197.984L195.908 13.1016C195.713 13.1246 195.517 13.0853 195.346 12.9894C195.392 12.8444 195.412 12.6922 195.402 12.5404L195.739 11.1935L195.908 10.2956C195.964 10.0367 195.964 9.76875 195.908 9.50987C195.839 9.21527 195.801 8.91435 195.795 8.61197C195.812 7.99036 195.677 7.37404 195.402 6.81617C195.178 6.19887 194.897 5.86217 194.112 6.03047C194.056 6.08667 194.056 6.08667 193.999 6.08667C193.607 6.08667 193.269 6.25497 192.933 6.14277C192.802 6.12322 192.669 6.13324 192.543 6.1721C192.416 6.21095 192.3 6.27765 192.203 6.36727L191.81 6.81617C191.089 7.51444 190.466 8.30734 189.958 9.17317C189.341 10.1832 188.948 11.3058 188.387 12.372C188.234 12.8344 188.047 13.2846 187.826 13.7189C187.778 13.8349 187.701 13.9369 187.603 14.0154C187.505 14.0939 187.389 14.1463 187.265 14.1679C186.718 14.2113 186.175 14.2862 185.637 14.3923L183.336 14.8974C183.237 14.9195 183.143 14.9575 183.056 15.0097C183.105 15.2123 183.224 15.3911 183.392 15.5147L184.402 16.132C184.739 16.4127 185.076 16.3565 185.469 16.4127C186.816 16.6927 185.356 18.8258 185.076 20.0604L184.571 21.8562C184.425 22.2195 184.313 22.5951 184.234 22.9786L183.953 24.101C182.607 28.6467 182.045 29.3201 182.045 34.0342C182.104 34.9634 182.254 35.8846 182.494 36.7842C182.7 37.3166 182.963 37.8248 183.28 38.2995C183.841 39.4218 185.581 41.1615 186.759 41.3295C187.482 41.461 188.22 41.4799 188.948 41.3856C189.821 41.1575 190.668 40.8378 191.473 40.4316C192.147 39.9826 193.382 38.5235 194.111 38.0185C194.392 37.794 197.029 34.4268 197.254 34.034L198.769 31.1719L199.835 28.4783C200.135 27.8129 200.36 27.1166 200.508 26.4019C200.452 26.1213 200.62 26.1213 200.62 25.7846C200.676 25.6162 200.284 25.8407 200.003 25.7846L198.937 28.1977Z" fill="black"/>
</svg>
